<?xml version="1.0" encoding="UTF-8" standalone="no"?>
<!DOCTYPE svg PUBLIC "-//W3C//DTD SVG 1.1//EN" "http://www.w3.org/Graphics/SVG/1.1/DTD/svg11.dtd">
<svg width="100%" height="100%" viewBox="0 0 648 648" version="1.1" xmlns="http://www.w3.org/2000/svg" xmlns:xlink="http://www.w3.org/1999/xlink" xml:space="preserve" xmlns:serif="http://www.serif.com/" style="fill-rule:evenodd;clip-rule:evenodd;stroke-linecap:round;stroke-linejoin:round;stroke-miterlimit:1.5;">
    <g transform="matrix(0.926241,0,0,0.926241,23.8979,23.8979)">
        <path d="M377.728,4.486C342.159,-1.495 305.841,-1.495 270.272,4.486L272.638,65.785C238.729,72.53 206.48,85.888 177.733,105.096L136.061,60.078C106.68,81 81,106.68 60.078,136.061L105.096,177.733C85.888,206.48 72.53,238.729 65.785,272.638L4.486,270.272C-1.495,305.841 -1.495,342.159 4.486,377.728L65.785,375.362C72.53,409.271 85.888,441.52 105.096,470.267L60.078,511.939C81,541.32 106.68,567 136.061,587.922L177.733,542.904C206.48,562.112 238.729,575.47 272.638,582.215L270.272,643.514C305.841,649.495 342.159,649.495 377.728,643.514L375.362,582.215C409.271,575.47 441.52,562.112 470.267,542.904L511.939,587.922C541.32,567 567,541.32 587.922,511.939L542.904,470.267C562.112,441.52 575.47,409.271 582.215,375.362L643.514,377.728C649.495,342.159 649.495,305.841 643.514,270.272L582.215,272.638C575.47,238.729 562.112,206.48 542.904,177.733L587.922,136.061C567,106.68 541.32,81 511.939,60.078L470.267,105.096C441.52,85.888 409.271,72.53 375.362,65.785L377.728,4.486ZM324,185.416C400.487,185.416 462.584,247.513 462.584,324C462.584,400.487 400.487,462.584 324,462.584C247.513,462.584 185.416,400.487 185.416,324C185.416,247.513 247.513,185.416 324,185.416Z" style="fill:none;stroke:white;stroke-width:28.79px;"/>
    </g>
</svg>
